<svg width="24" height="24" viewBox="0 0 24 24" fill="none" xmlns="http://www.w3.org/2000/svg">
<g id="ph:eye-closed-light">
<path id="Vector" d="M21.4875 15.3562C21.5597 15.4861 21.5786 15.6389 21.5401 15.7824C21.5016 15.9259 21.4088 16.0487 21.2813 16.125C21.1965 16.176 21.099 16.202 21 16.2C20.9012 16.2001 20.8042 16.1741 20.7186 16.1247C20.633 16.0754 20.5619 16.0043 20.5125 15.9187L18.6844 12.7594C17.5965 13.517 16.3845 14.0786 15.1032 14.4187L15.675 17.6812C15.6995 17.8279 15.6649 17.9783 15.5788 18.0995C15.4927 18.2207 15.3622 18.3029 15.2157 18.3281H15.1219C14.9887 18.3297 14.8595 18.2831 14.7578 18.197C14.6562 18.1109 14.5891 17.991 14.5688 17.8594L13.9969 14.6437C13.337 14.7542 12.6691 14.8106 12 14.8125C11.3281 14.8137 10.6571 14.7604 9.99379 14.6531L9.42191 17.8687C9.3998 17.9996 9.33216 18.1184 9.23095 18.2041C9.12973 18.2899 9.00146 18.3371 8.86879 18.3375H8.77504C8.62852 18.3123 8.49796 18.2301 8.41188 18.1088C8.3258 17.9876 8.2912 17.8373 8.31566 17.6906L8.88754 14.4281C7.60837 14.082 6.39736 13.5208 5.30629 12.7687L3.47816 15.9375C3.42876 16.0231 3.3577 16.0941 3.27212 16.1435C3.18654 16.1928 3.08946 16.2188 2.99066 16.2187C2.89218 16.2172 2.79558 16.1915 2.70941 16.1437C2.64536 16.1068 2.58921 16.0577 2.54418 15.9991C2.49914 15.9404 2.4661 15.8735 2.44695 15.8021C2.42779 15.7307 2.4229 15.6563 2.43254 15.583C2.44219 15.5097 2.46619 15.439 2.50316 15.375L4.40629 12.0656C3.73224 11.4975 3.11382 10.8666 2.55941 10.1812C2.46617 10.0644 2.42317 9.91527 2.43988 9.76671C2.45658 9.61814 2.53161 9.4823 2.64847 9.38906C2.76533 9.29582 2.91445 9.25282 3.06301 9.26952C3.21158 9.28622 3.34742 9.36126 3.44066 9.47812C4.03345 10.2191 4.7098 10.8892 5.45629 11.475L5.49379 11.4937C7.35331 12.9374 9.64602 13.7104 12 13.6875C14.354 13.7104 16.6468 12.9374 18.5063 11.4937L18.5344 11.475C19.2859 10.8917 19.9656 10.2214 20.5594 9.47812C20.6527 9.36126 20.7885 9.28622 20.9371 9.26952C21.0856 9.25282 21.2347 9.29582 21.3516 9.38906C21.4685 9.4823 21.5435 9.61814 21.5602 9.76671C21.5769 9.91527 21.5339 10.0644 21.4407 10.1812C20.8832 10.8698 20.2617 11.5039 19.5844 12.075L21.4875 15.3562Z" fill="#D4D4D4"/>
</g>
</svg>
