<svg width="24" height="24" viewBox="0 0 24 24" fill="none" xmlns="http://www.w3.org/2000/svg">
<g id="ph:eye-light">
<path id="Vector" d="M23.0157 11.775C22.9782 11.7 22.2001 9.96563 20.4564 8.23125C18.7126 6.49688 16.0689 4.6875 12.0001 4.6875C7.93137 4.6875 5.15637 6.60938 3.54387 8.23125C1.93137 9.85313 1.02199 11.7 0.984492 11.775C0.951768 11.8455 0.934814 11.9223 0.934814 12C0.934814 12.0777 0.951768 12.1545 0.984492 12.225C1.02199 12.3 1.80012 14.0344 3.54387 15.7687C5.28762 17.5031 7.93137 19.3125 12.0001 19.3125C16.0689 19.3125 18.8439 17.3906 20.4564 15.7687C22.0689 14.1469 22.9782 12.3 23.0157 12.225C23.0485 12.1545 23.0654 12.0777 23.0654 12C23.0654 11.9223 23.0485 11.8455 23.0157 11.775ZM12.0001 18.1875C9.05637 18.1875 6.48762 17.1188 4.36887 15.0094C3.47545 14.1242 2.72015 13.1097 2.12824 12C2.72015 10.8903 3.47545 9.87584 4.36887 8.99063C6.48762 6.88125 9.05637 5.8125 12.0001 5.8125C14.9439 5.8125 17.5126 6.88125 19.6314 8.99063C20.5248 9.87584 21.2801 10.8903 21.872 12C21.272 13.1438 18.2814 18.1875 12.0001 18.1875ZM12.0001 7.6875C11.1472 7.6875 10.3134 7.94042 9.60422 8.41429C8.89503 8.88815 8.34229 9.56167 8.01589 10.3497C7.68948 11.1377 7.60408 12.0048 7.77048 12.8413C7.93688 13.6779 8.3476 14.4463 8.95072 15.0494C9.55383 15.6525 10.3222 16.0632 11.1588 16.2296C11.9953 16.396 12.8624 16.3106 13.6504 15.9842C14.4384 15.6578 15.112 15.1051 15.5858 14.3959C16.0597 13.6867 16.3126 12.8529 16.3126 12C16.3126 10.8563 15.8583 9.75935 15.0495 8.9506C14.2408 8.14185 13.1439 7.6875 12.0001 7.6875ZM12.0001 15.1875C11.3697 15.1875 10.7534 15.0006 10.2292 14.6503C9.70505 14.3001 9.2965 13.8022 9.05525 13.2198C8.814 12.6374 8.75087 11.9965 8.87386 11.3781C8.99685 10.7598 9.30043 10.1919 9.74621 9.7461C10.192 9.30032 10.76 8.99674 11.3783 8.87375C11.9966 8.75076 12.6375 8.81388 13.2199 9.05513C13.8024 9.29639 14.3002 9.70494 14.6504 10.2291C15.0007 10.7533 15.1876 11.3696 15.1876 12C15.1851 12.8446 14.8485 13.6539 14.2513 14.2512C13.654 14.8484 12.8447 15.185 12.0001 15.1875Z" fill="#D4D4D4"/>
</g>
</svg>
