<svg width="20" height="20" viewBox="0 0 20 20" fill="none" xmlns="http://www.w3.org/2000/svg">
<g id="solar:copy-bold">
<g id="Group">
<path id="Vector" d="M12.9273 1.81824H9.68229C8.21229 1.81824 7.0473 1.81824 6.13646 1.94157C5.19813 2.06824 4.43896 2.3349 3.84063 2.93574C3.24146 3.53657 2.97563 4.29907 2.84979 5.24074C2.72729 6.15574 2.72729 7.3249 2.72729 8.80074V13.6657C2.72729 14.9224 3.49396 15.9991 4.58313 16.4507C4.5273 15.6924 4.52729 14.6299 4.52729 13.7449V9.5699C4.52729 8.5024 4.52729 7.58157 4.62563 6.8449C4.73146 6.0549 4.96979 5.29824 5.58146 4.68407C6.19313 4.0699 6.9473 3.83074 7.73396 3.72407C8.4673 3.62574 9.38396 3.62574 10.4481 3.62574H13.0065C14.0698 3.62574 14.9848 3.62574 15.719 3.72407C15.499 3.16271 15.1149 2.68065 14.617 2.3407C14.119 2.00075 13.5302 1.81869 12.9273 1.81824Z" fill="#5C5C5C"/>
<path id="Vector_2" d="M5.72729 9.64912C5.72729 7.37746 5.72729 6.24162 6.43063 5.53579C7.13313 4.82996 8.26396 4.82996 10.5273 4.82996H12.9273C15.1898 4.82996 16.3215 4.82996 17.0248 5.53579C17.7273 6.24162 17.7273 7.37746 17.7273 9.64912V13.6658C17.7273 15.9375 17.7273 17.0733 17.0248 17.7791C16.3215 18.485 15.1898 18.485 12.9273 18.485H10.5273C8.26479 18.485 7.13313 18.485 6.43063 17.7791C5.72729 17.0733 5.72729 15.9375 5.72729 13.6658V9.64912Z" fill="#5C5C5C"/>
</g>
</g>
</svg>
