<svg width="15" height="15" viewBox="0 0 15 15" fill="none" xmlns="http://www.w3.org/2000/svg">
<path id="Vector" d="M13.1865 12.39C14.3589 11.0308 15.0026 9.29494 15 7.5C15.0026 5.70506 14.3589 3.96919 13.1865 2.61001L9.98175 5.814C10.3204 6.31097 10.501 6.89863 10.5 7.5C10.5 8.1255 10.3087 8.70525 9.98175 9.186L13.1865 12.39ZM12.39 13.1865C11.0308 14.3589 9.29494 15.0026 7.5 15C5.70506 15.0026 3.96919 14.3589 2.61001 13.1865L5.814 9.98175C6.31097 10.3204 6.89863 10.501 7.5 10.5C8.1255 10.5 8.70525 10.3087 9.186 9.98175L12.39 13.1865ZM1.81351 12.39L5.01825 9.186C4.67966 8.68902 4.49902 8.10137 4.5 7.5C4.5 6.8745 4.69125 6.29475 5.01825 5.814L1.81351 2.60926C0.640971 3.96863 -0.00280546 5.7048 9.19046e-06 7.5C-0.00262515 9.29494 0.64114 11.0308 1.81351 12.39ZM7.5 4.5C6.8745 4.5 6.29475 4.69125 5.814 5.01825L2.60926 1.81351C3.96863 0.640971 5.7048 -0.00280546 7.5 9.19046e-06C9.29494 -0.00262515 11.0308 0.64114 12.39 1.81351L9.186 5.01825C8.68902 4.67966 8.10137 4.49902 7.5 4.5Z" fill="#2A2A2A"/>
</svg>
