<svg width="24" height="24" viewBox="0 0 24 24" fill="none" xmlns="http://www.w3.org/2000/svg">
<g id="arcticons:password">
<path id="Vector" d="M11.9999 12.64C11.6427 12.6414 11.2959 12.7601 11.0128 12.9778C10.7296 13.1954 10.5258 13.5001 10.4326 13.8449C10.3395 14.1897 10.3622 14.5555 10.4972 14.8862C10.6322 15.2168 10.872 15.494 11.1799 15.675V18H12.8399V15.675C13.0834 15.531 13.2856 15.3263 13.4266 15.081C13.5677 14.8357 13.6429 14.558 13.6449 14.275V14.275C13.6449 14.0595 13.6023 13.8461 13.5195 13.647C13.4367 13.448 13.3154 13.2673 13.1625 13.1154C13.0096 12.9634 12.8282 12.8432 12.6286 12.7616C12.4291 12.68 12.2154 12.6387 11.9999 12.64V12.64Z" stroke="#D4D4D4" stroke-linecap="round" stroke-linejoin="round"/>
<path id="Vector_2" d="M18.1449 8.88501H5.84994C4.65701 8.88501 3.68994 9.85207 3.68994 11.045V19.59C3.68994 20.7829 4.65701 21.75 5.84994 21.75H18.1449C19.3379 21.75 20.3049 20.7829 20.3049 19.59V11.045C20.3049 9.85207 19.3379 8.88501 18.1449 8.88501Z" stroke="#D4D4D4" stroke-linecap="round" stroke-linejoin="round"/>
<path id="Vector_3" d="M6.67505 8.885V7.58C6.67505 6.1664 7.2366 4.81069 8.23617 3.81112C9.23574 2.81155 10.5914 2.25 12.005 2.25C13.4187 2.25 14.7744 2.81155 15.7739 3.81112C16.7735 4.81069 17.335 6.1664 17.335 7.58V8.885" stroke="#D4D4D4" stroke-linecap="round" stroke-linejoin="round"/>
</g>
</svg>
