<svg width="24" height="24" viewBox="0 0 24 24" fill="none" xmlns="http://www.w3.org/2000/svg">
<g id="radix-icons:person">
<path id="Vector" fill-rule="evenodd" clip-rule="evenodd" d="M12 1.40003C10.6012 1.39817 9.24885 1.90188 8.19212 2.81837C7.13539 3.73486 6.44547 5.00236 6.24948 6.38736C6.05349 7.77235 6.36463 9.18152 7.12558 10.3552C7.88652 11.5289 9.046 12.3881 10.3904 12.7744C8.47999 13.0064 6.84159 13.6816 5.60639 14.8992C4.03519 16.4464 3.23999 18.752 3.23999 21.76C3.23999 21.9616 3.32006 22.1549 3.46259 22.2974C3.60512 22.44 3.79843 22.52 3.99999 22.52C4.20155 22.52 4.39486 22.44 4.53739 22.2974C4.67992 22.1549 4.75999 21.9616 4.75999 21.76C4.75999 19.008 5.48479 17.152 6.67359 15.9808C7.86399 14.808 9.64319 14.2 12 14.2C14.3568 14.2 16.136 14.808 17.328 15.9808C18.5152 17.1536 19.24 19.008 19.24 21.76C19.24 21.9616 19.3201 22.1549 19.4626 22.2974C19.6051 22.44 19.7984 22.52 20 22.52C20.2016 22.52 20.3949 22.44 20.5374 22.2974C20.6799 22.1549 20.76 21.9616 20.76 21.76C20.76 18.752 19.9648 16.448 18.392 14.8992C17.16 13.6832 15.52 13.0064 13.6096 12.7744C14.9495 12.3838 16.1037 11.5233 16.8607 10.3507C17.6177 9.17813 17.9267 7.77202 17.7311 6.3901C17.5356 5.00817 16.8485 3.74302 15.7959 2.82652C14.7433 1.91003 13.3957 1.40359 12 1.40003ZM7.71999 7.20003C7.71999 6.0649 8.17092 4.97627 8.97357 4.17361C9.77623 3.37096 10.8649 2.92003 12 2.92003C13.1351 2.92003 14.2238 3.37096 15.0264 4.17361C15.8291 4.97627 16.28 6.0649 16.28 7.20003C16.28 8.33516 15.8291 9.42379 15.0264 10.2264C14.2238 11.0291 13.1351 11.48 12 11.48C10.8649 11.48 9.77623 11.0291 8.97357 10.2264C8.17092 9.42379 7.71999 8.33516 7.71999 7.20003Z" fill="#D4D4D4"/>
</g>
</svg>
